<?xml version="1.0" encoding="UTF-8" standalone="no"?>
<svg
   xmlns:dc="http://purl.org/dc/elements/1.1/"
   xmlns:cc="http://creativecommons.org/ns#"
   xmlns:rdf="http://www.w3.org/1999/02/22-rdf-syntax-ns#"
   xmlns:svg="http://www.w3.org/2000/svg"
   xmlns="http://www.w3.org/2000/svg"
   xmlns:sodipodi="http://sodipodi.sourceforge.net/DTD/sodipodi-0.dtd"
   xmlns:inkscape="http://www.inkscape.org/namespaces/inkscape"
   version="1.1"
   id="svg2"
   xml:space="preserve"
   width="377.95334"
   height="377.95334"
   viewBox="0 0 377.95334 377.95334"
   sodipodi:docname="logo final.ai"><metadata
     id="metadata8"><rdf:RDF><cc:Work
         rdf:about=""><dc:format>image/svg+xml</dc:format><dc:type
           rdf:resource="http://purl.org/dc/dcmitype/StillImage" /></cc:Work></rdf:RDF></metadata><defs
     id="defs6"><clipPath
       clipPathUnits="userSpaceOnUse"
       id="clipPath18"><path
         d="M 0,283.465 H 283.465 V 0 H 0 Z"
         id="path16" /></clipPath><radialGradient
       fx="0"
       fy="0"
       cx="0"
       cy="0"
       r="1"
       gradientUnits="userSpaceOnUse"
       gradientTransform="matrix(43.223957,0,0,-43.223957,136.6335,178.73317)"
       spreadMethod="pad"
       id="radialGradient110"><stop
         style="stop-opacity:1;stop-color:#99d2c3"
         offset="0"
         id="stop104" /><stop
         style="stop-opacity:1;stop-color:#99d2c3"
         offset="0.578378"
         id="stop106" /><stop
         style="stop-opacity:1;stop-color:#37ab9c"
         offset="1"
         id="stop108" /></radialGradient><linearGradient
       x1="0"
       y1="0"
       x2="1"
       y2="0"
       gradientUnits="userSpaceOnUse"
       gradientTransform="matrix(0,-100.89409,-100.89409,0,131.56154,233.3902)"
       spreadMethod="pad"
       id="linearGradient136"><stop
         style="stop-opacity:1;stop-color:#10302d"
         offset="0"
         id="stop126" /><stop
         style="stop-opacity:1;stop-color:#37ab9c"
         offset="0.15092899"
         id="stop128" /><stop
         style="stop-opacity:1;stop-color:#37ab9c"
         offset="0.318919"
         id="stop130" /><stop
         style="stop-opacity:1;stop-color:#37ab9c"
         offset="0.57442279"
         id="stop132" /><stop
         style="stop-opacity:1;stop-color:#10302d"
         offset="1"
         id="stop134" /></linearGradient><radialGradient
       fx="0"
       fy="0"
       cx="0"
       cy="0"
       r="1"
       gradientUnits="userSpaceOnUse"
       gradientTransform="matrix(40.623241,0,0,-40.623241,149.4063,173.25275)"
       spreadMethod="pad"
       id="radialGradient158"><stop
         style="stop-opacity:1;stop-color:#f4f4f4"
         offset="0"
         id="stop152" /><stop
         style="stop-opacity:1;stop-color:#a7a5a6"
         offset="0.5"
         id="stop154" /><stop
         style="stop-opacity:1;stop-color:#7b7979"
         offset="1"
         id="stop156" /></radialGradient><clipPath
       clipPathUnits="userSpaceOnUse"
       id="clipPath168"><path
         d="M 0,283.465 H 283.465 V 0 H 0 Z"
         id="path166" /></clipPath><clipPath
       clipPathUnits="userSpaceOnUse"
       id="clipPath176"><path
         d="m 108.951,209.539 h 80.573 v -67.186 h -80.573 z"
         id="path174" /></clipPath><clipPath
       clipPathUnits="userSpaceOnUse"
       id="clipPath192"><path
         d="m 118.662,213.893 h 61.15 v -51.401 h -61.15 z"
         id="path190" /></clipPath><clipPath
       clipPathUnits="userSpaceOnUse"
       id="clipPath196"><path
         d="m 118.663,213.893 h 61.15 v -51.401 h -61.15 z"
         id="path194" /></clipPath><radialGradient
       fx="0"
       fy="0"
       cx="0"
       cy="0"
       r="1"
       gradientUnits="userSpaceOnUse"
       gradientTransform="matrix(54.124275,0,0,-54.124275,148.79395,207.68896)"
       spreadMethod="pad"
       id="radialGradient208"><stop
         style="stop-opacity:1;stop-color:#100f0d"
         offset="0"
         id="stop202" /><stop
         style="stop-opacity:1;stop-color:#ffffff"
         offset="0.6576092"
         id="stop204" /><stop
         style="stop-opacity:1;stop-color:#ffffff"
         offset="1"
         id="stop206" /></radialGradient><mask
       maskUnits="userSpaceOnUse"
       x="0"
       y="0"
       width="1"
       height="1"
       id="mask210"><g
         id="g234"><g
           clip-path="url(#clipPath192)"
           opacity="0.699997"
           id="g232"><path
             d="m 118.663,213.893 h 61.15 v -51.401 h -61.15 z"
             style="fill:#000000;fill-opacity:1;fill-rule:nonzero;stroke:none"
             id="path212" /><g
             id="g230"><g
               id="g214" /><g
               id="g228"><g
                 clip-path="url(#clipPath196)"
                 id="g226"><g
                   id="g224"><g
                     id="g222"><g
                       id="g220"><g
                         id="g218"><path
                           d="m 188.674,156.289 h -75.328 v 63.808 h 75.328 z"
                           style="fill:url(#radialGradient208);stroke:none"
                           id="path216" /></g></g></g></g></g></g></g></g></g></mask><clipPath
       clipPathUnits="userSpaceOnUse"
       id="clipPath242"><path
         d="m 118.662,213.893 h 61.15 v -51.401 h -61.15 z"
         id="path240" /></clipPath><linearGradient
       x1="0"
       y1="0"
       x2="1"
       y2="0"
       gradientUnits="userSpaceOnUse"
       gradientTransform="matrix(-23.661175,-23.214703,-23.214703,23.661175,178.79887,175.46901)"
       spreadMethod="pad"
       id="linearGradient274"><stop
         style="stop-opacity:1;stop-color:#37ab9c"
         offset="0"
         id="stop264" /><stop
         style="stop-opacity:1;stop-color:#37ab9c"
         offset="0.20480864"
         id="stop266" /><stop
         style="stop-opacity:1;stop-color:#287d73"
         offset="0.545946"
         id="stop268" /><stop
         style="stop-opacity:1;stop-color:#287d73"
         offset="0.71628186"
         id="stop270" /><stop
         style="stop-opacity:1;stop-color:#10302d"
         offset="1"
         id="stop272" /></linearGradient><linearGradient
       x1="0"
       y1="0"
       x2="1"
       y2="0"
       gradientUnits="userSpaceOnUse"
       gradientTransform="matrix(35.185997,0,0,-35.185997,144.2083,169.82903)"
       spreadMethod="pad"
       id="linearGradient300"><stop
         style="stop-opacity:1;stop-color:#37ab9c"
         offset="0"
         id="stop290" /><stop
         style="stop-opacity:1;stop-color:#37ab9c"
         offset="0.20480864"
         id="stop292" /><stop
         style="stop-opacity:1;stop-color:#287d73"
         offset="0.545946"
         id="stop294" /><stop
         style="stop-opacity:1;stop-color:#287d73"
         offset="0.71628186"
         id="stop296" /><stop
         style="stop-opacity:1;stop-color:#10302d"
         offset="1"
         id="stop298" /></linearGradient></defs><sodipodi:namedview
     pagecolor="#ffffff"
     bordercolor="#666666"
     borderopacity="1"
     objecttolerance="10"
     gridtolerance="10"
     guidetolerance="10"
     inkscape:pageopacity="0"
     inkscape:pageshadow="2"
     inkscape:window-width="640"
     inkscape:window-height="480"
     id="namedview4" /><g
     id="g10"
     inkscape:groupmode="layer"
     inkscape:label="logo final"
     transform="matrix(1.3333333,0,0,-1.3333333,0,377.95333)"><g
       id="g12"><g
         id="g14"
         clip-path="url(#clipPath18)"><g
           id="g20"
           transform="translate(82.2147,95.7001)"><path
             d="m 0,0 h 10.71 v -19.425 c 0,-7.362 -3.68,-11.051 -11.041,-11.068 -7.345,0 -11.017,3.689 -11.017,11.068 v 30.671 c 0,7.361 3.672,11.042 11.017,11.042 7.361,0 11.041,-3.681 11.041,-11.042 V 3.987 H 2.199 v 7.259 c 0,1.908 -0.835,2.871 -2.506,2.889 h -0.05 c -1.654,0 -2.479,-0.963 -2.479,-2.889 v -30.671 c 0,-1.927 0.834,-2.888 2.505,-2.888 1.687,0 2.53,0.961 2.53,2.888 v 11.246 l -2.199,0 z"
             style="fill:#f14624;fill-opacity:1;fill-rule:nonzero;stroke:none"
             id="path22" /></g><g
           id="g24"
           transform="translate(99.0599,117.1962)"><path
             d="M 0,0 H 20.038 V -8.153 H 8.511 v -13.343 h 9.917 v -8.179 H 8.511 v -13.343 h 11.527 v -8.153 H 0 Z"
             style="fill:#f14624;fill-opacity:1;fill-rule:nonzero;stroke:none"
             id="path26" /></g><g
           id="g28"
           transform="translate(124.4662,66.0253)"><path
             d="M 0,0 V 51.171 H 8.511 V 8.153 H 20.039 V 0 Z"
             style="fill:#f14624;fill-opacity:1;fill-rule:nonzero;stroke:none"
             id="path30" /></g><path
           d="m 148.979,117.196 h 8.511 V 66.025 h -8.511 z"
           style="fill:#f14624;fill-opacity:1;fill-rule:nonzero;stroke:none"
           id="path32" /><g
           id="g34"
           transform="translate(164.2625,66.0253)"><path
             d="M 0,0 V 51.171 H 8.511 V 8.153 h 11.527 l 0,-8.153 z"
             style="fill:#f14624;fill-opacity:1;fill-rule:nonzero;stroke:none"
             id="path36" /></g><g
           id="g38"
           transform="translate(201.5047,84.8368)"><path
             d="M 0,0 -2.045,15.489 -4.09,0 Z m 8.663,-0.459 2.43,-18.353 H 2.504 L 1.098,-8.179 h -6.262 l -1.432,-10.633 h -8.563 l 2.43,18.276 5.188,32.895 H 3.501 Z"
             style="fill:#f14624;fill-opacity:1;fill-rule:nonzero;stroke:none"
             id="path40" /></g><path
           d="m 70.866,57.703 h 1.621 v -7.515 h -1.621 z"
           style="fill:#37ab9c;fill-opacity:1;fill-rule:nonzero;stroke:none"
           id="path42" /><g
           id="g44"
           transform="translate(78.0472,57.703)"><path
             d="M 0,0 H 1.925 L 3.332,-4.505 4.74,0 H 6.597 L 7.565,-7.515 H 6.022 L 5.358,-2.227 3.705,-7.515 H 2.969 L 1.272,-2.181 0.645,-7.515 h -1.568 z"
             style="fill:#37ab9c;fill-opacity:1;fill-rule:nonzero;stroke:none"
             id="path46" /></g><g
           id="g48"
           transform="translate(91.9276,56.3524)"><path
             d="m 0,0 v -1.923 h 0.629 c 0.271,0 0.503,0.097 0.696,0.292 0.192,0.194 0.289,0.425 0.289,0.693 0,0.304 -0.109,0.541 -0.327,0.709 C 1.069,-0.062 0.76,0.022 0.361,0.022 Z M -1.586,1.351 H 0.985 C 1.674,1.351 2.232,1.149 2.656,0.747 3.079,0.344 3.29,-0.186 3.29,-0.841 3.29,-1.272 3.186,-1.682 2.979,-2.069 2.771,-2.457 2.457,-2.745 2.037,-2.937 1.617,-3.127 1.259,-3.226 0.96,-3.233 L 0.022,-3.257 v -2.907 h -1.608 z"
             style="fill:#37ab9c;fill-opacity:1;fill-rule:nonzero;stroke:none"
             id="path50" /></g><g
           id="g52"
           transform="translate(103.5873,56.2831)"><path
             d="m 0,0 c -0.631,0.012 -1.137,-0.205 -1.522,-0.651 -0.386,-0.448 -0.579,-1.024 -0.579,-1.73 0,-0.668 0.197,-1.221 0.589,-1.659 0.394,-0.439 0.89,-0.658 1.49,-0.658 0.628,0 1.137,0.217 1.523,0.649 0.388,0.433 0.581,1.005 0.581,1.714 0,0.698 -0.188,1.26 -0.568,1.684 C 1.133,-0.229 0.629,-0.011 0,0 m -3.789,-2.335 c 0,1.11 0.368,2.027 1.102,2.75 0.734,0.724 1.605,1.085 2.613,1.085 1.113,0 2.035,-0.363 2.764,-1.09 0.728,-0.727 1.092,-1.645 1.092,-2.756 0,-1.102 -0.361,-2.018 -1.081,-2.748 -0.721,-0.727 -1.63,-1.093 -2.723,-1.093 -1.096,0 -1.998,0.364 -2.705,1.088 -0.708,0.725 -1.062,1.646 -1.062,2.764"
             style="fill:#37ab9c;fill-opacity:1;fill-rule:nonzero;stroke:none"
             id="path54" /></g><g
           id="g56"
           transform="translate(113.8509,56.3641)"><path
             d="m 0,0 v -1.958 h 0.349 c 0.847,0 1.27,0.346 1.27,1.036 0,0.282 -0.111,0.506 -0.33,0.673 C 1.068,-0.083 0.764,0 0.373,0 Z m -1.631,1.339 h 2.474 c 0.754,0 1.348,-0.198 1.785,-0.596 0.437,-0.396 0.657,-0.931 0.657,-1.606 0,-0.386 -0.1,-0.786 -0.301,-1.202 C 2.782,-2.48 2.412,-2.807 1.875,-3.043 L 3.978,-6.176 H 2.115 l -1.944,2.907 h -0.183 v -2.907 h -1.619 z"
             style="fill:#37ab9c;fill-opacity:1;fill-rule:nonzero;stroke:none"
             id="path58" /></g><g
           id="g60"
           transform="translate(121.9564,57.703)"><path
             d="M 0,0 H 5.054 V -1.597 H 3.332 v -5.918 h -1.62 v 5.918 l -1.712,0 z"
             style="fill:#37ab9c;fill-opacity:1;fill-rule:nonzero;stroke:none"
             id="path62" /></g><g
           id="g64"
           transform="translate(140.7455,54.7372)"><path
             d="m 0,0 c 0.477,0.37 0.714,0.715 0.714,1.031 0,0.183 -0.055,0.33 -0.166,0.441 C 0.437,1.583 0.291,1.638 0.107,1.638 -0.064,1.638 -0.206,1.577 -0.316,1.457 -0.427,1.337 -0.482,1.184 -0.482,0.997 -0.482,0.768 -0.321,0.436 0,0 m 0.085,-2.275 c -0.024,0.022 -0.095,0.108 -0.216,0.256 -0.121,0.149 -0.216,0.26 -0.29,0.332 -0.415,-0.366 -0.622,-0.715 -0.622,-1.047 0,-0.161 0.064,-0.302 0.189,-0.424 0.127,-0.122 0.275,-0.183 0.446,-0.183 0.249,0 0.588,0.149 1.02,0.446 z m 0.62,1.42 1.011,-1.199 0.819,0.796 0.76,-0.898 C 3.28,-2.179 3.156,-2.313 2.92,-2.557 2.687,-2.801 2.545,-2.927 2.496,-2.935 L 3.868,-4.549 H 2.031 L 1.408,-3.835 C 0.824,-4.174 0.403,-4.396 0.144,-4.503 c -0.261,-0.107 -0.529,-0.16 -0.809,-0.16 -0.316,0 -0.643,0.066 -0.978,0.197 -0.337,0.131 -0.601,0.353 -0.796,0.663 -0.194,0.312 -0.292,0.649 -0.292,1.012 0,0.823 0.532,1.508 1.596,2.054 -0.469,0.572 -0.703,1.138 -0.703,1.699 0,0.471 0.186,0.877 0.558,1.22 0.371,0.343 0.819,0.515 1.342,0.515 0.55,0 1.009,-0.168 1.379,-0.501 C 1.811,1.862 1.996,1.451 1.996,0.963 1.996,0.56 1.84,0.2 1.531,-0.115 1.22,-0.43 0.945,-0.677 0.705,-0.855"
             style="fill:#37ab9c;fill-opacity:1;fill-rule:nonzero;stroke:none"
             id="path66" /></g><g
           id="g68"
           transform="translate(155.8182,57.703)"><path
             d="M 0,0 H 4.229 V -1.487 H 1.621 V -3.005 H 4.229 V -4.47 H 1.621 v -1.557 h 2.608 v -1.488 l -4.229,0 z"
             style="fill:#37ab9c;fill-opacity:1;fill-rule:nonzero;stroke:none"
             id="path70" /></g><g
           id="g72"
           transform="translate(164.6336,57.703)"><path
             d="M 0,0 H 1.721 L 3.231,-2.298 4.792,0 H 6.468 L 4.088,-3.571 6.703,-7.515 H 5.028 L 3.241,-4.844 1.464,-7.515 h -1.709 l 2.639,3.938 z"
             style="fill:#37ab9c;fill-opacity:1;fill-rule:nonzero;stroke:none"
             id="path74" /></g><g
           id="g76"
           transform="translate(177.5135,56.3524)"><path
             d="m 0,0 v -1.923 h 0.629 c 0.271,0 0.503,0.097 0.696,0.292 0.193,0.194 0.289,0.425 0.289,0.693 0,0.304 -0.109,0.541 -0.327,0.709 -0.218,0.167 -0.526,0.251 -0.926,0.251 z m -1.586,1.351 h 2.571 c 0.69,0 1.247,-0.202 1.671,-0.604 C 3.079,0.344 3.29,-0.186 3.29,-0.841 3.29,-1.272 3.187,-1.682 2.979,-2.069 2.771,-2.457 2.457,-2.745 2.037,-2.937 1.617,-3.127 1.26,-3.226 0.961,-3.233 L 0.022,-3.257 v -2.907 h -1.608 z"
             style="fill:#37ab9c;fill-opacity:1;fill-rule:nonzero;stroke:none"
             id="path78" /></g><g
           id="g80"
           transform="translate(189.1747,56.2831)"><path
             d="m 0,0 c -0.63,0.012 -1.137,-0.205 -1.521,-0.651 -0.386,-0.448 -0.58,-1.024 -0.58,-1.73 0,-0.668 0.198,-1.221 0.589,-1.659 0.395,-0.439 0.89,-0.658 1.49,-0.658 0.628,0 1.137,0.217 1.524,0.649 0.387,0.433 0.581,1.005 0.581,1.714 0,0.698 -0.188,1.26 -0.569,1.684 C 1.134,-0.229 0.629,-0.011 0,0 m -3.789,-2.335 c 0,1.11 0.368,2.027 1.102,2.75 0.735,0.724 1.606,1.085 2.613,1.085 1.113,0 2.036,-0.363 2.764,-1.09 0.728,-0.727 1.093,-1.645 1.093,-2.756 0,-1.102 -0.361,-2.018 -1.082,-2.748 -0.721,-0.727 -1.63,-1.093 -2.723,-1.093 -1.095,0 -1.998,0.364 -2.705,1.088 -0.708,0.725 -1.062,1.646 -1.062,2.764"
             style="fill:#37ab9c;fill-opacity:1;fill-rule:nonzero;stroke:none"
             id="path82" /></g><g
           id="g84"
           transform="translate(199.4383,56.3641)"><path
             d="m 0,0 v -1.958 h 0.35 c 0.846,0 1.269,0.346 1.269,1.036 0,0.282 -0.11,0.506 -0.33,0.673 C 1.068,-0.083 0.765,0 0.374,0 Z m -1.631,1.339 h 2.475 c 0.753,0 1.347,-0.198 1.785,-0.596 0.436,-0.396 0.656,-0.931 0.656,-1.606 0,-0.386 -0.1,-0.786 -0.301,-1.202 C 2.782,-2.48 2.412,-2.807 1.875,-3.043 L 3.979,-6.176 H 2.115 l -1.943,2.907 h -0.184 v -2.907 h -1.619 z"
             style="fill:#37ab9c;fill-opacity:1;fill-rule:nonzero;stroke:none"
             id="path86" /></g><g
           id="g88"
           transform="translate(207.5448,57.703)"><path
             d="M 0,0 H 5.054 V -1.597 H 3.331 V -7.515 H 1.712 v 5.918 l -1.712,0 z"
             style="fill:#37ab9c;fill-opacity:1;fill-rule:nonzero;stroke:none"
             id="path90" /></g></g></g><g
       id="g92"><g
         id="g94"><g
           id="g100"><g
             id="g102"><path
               d="M 123.379,221.449 C 105.014,214.287 96.675,196.294 96.675,179.101 v 0 c 0,-25.711 20.916,-46.627 46.627,-46.627 v 0 c 2.836,0 5.633,0.264 8.367,0.757 v 0 c 6.211,6.071 11.863,15.171 11.863,15.171 v 0 c 0,0 -13.147,-6.067 -30.796,8.681 v 0 c -17.649,14.749 -26.445,31.544 1.746,39.765 v 0 c 23.592,6.88 27.958,12.989 32.663,8.366 v 0 l 9.447,8.423 c 0,0 -12.309,11.356 -22.709,11.356 v 0 c -8.518,0 -21.406,0.004 -30.504,-3.544"
               style="fill:url(#radialGradient110);stroke:none"
               id="path112" /></g></g></g></g><g
       id="g114"><g
         id="g116"><g
           id="g122"><g
             id="g124"><path
               d="m 86.531,183.114 c 0,-34.589 26.201,-50.603 53.163,-50.603 v 0 c 0.741,0 1.371,-0.033 2.104,0 v 0 c -23.576,1.113 -42.22,20.957 -42.22,44.808 v 0 c 0,24.565 19.533,46.499 44.099,46.499 v 0 c 11.728,0 24.969,-2.763 32.915,-10.181 v 0 c -8.952,10.318 -21.107,19.753 -39.785,19.753 v 0 c -29.936,0 -50.276,-23.313 -50.276,-50.276"
               style="fill:url(#linearGradient136);stroke:none"
               id="path138" /></g></g></g></g><g
       id="g140"><g
         id="g142"><g
           id="g148"><g
             id="g150"><path
               d="m 108.783,173.253 c 0,-22.436 18.187,-40.624 40.623,-40.624 v 0 c 22.435,0 40.623,18.188 40.623,40.624 v 0 c 0,22.435 -18.188,40.623 -40.623,40.623 v 0 c -22.436,0 -40.623,-18.188 -40.623,-40.623"
               style="fill:url(#radialGradient158);stroke:none"
               id="path160" /></g></g></g></g><g
       id="g162"><g
         id="g164"
         clip-path="url(#clipPath168)"><g
           id="g170"><g
             id="g172" /><g
             id="g184"><g
               clip-path="url(#clipPath176)"
               opacity="0.800003"
               id="g182"><g
                 transform="translate(189.1092,166.3187)"
                 id="g180"><path
                   d="m 0,0 c -0.122,-0.063 -0.72,-0.134 -0.797,-0.017 -0.08,0.118 -0.199,-0.242 -0.325,-0.3 -0.128,-0.058 -0.058,-0.371 0.131,-0.274 0.134,0.066 0.699,-0.246 1.159,-0.536 0.092,0.454 0.171,0.913 0.247,1.376 C 0.249,0.161 0.078,0.042 0,0 m -66.12,9.297 c 0.239,0.117 0.268,0.404 0.127,0.387 -0.142,-0.014 -0.404,0.412 -0.56,0.474 -0.154,0.061 -0.279,-0.257 -0.279,-0.396 0,-0.139 0.087,-0.235 0.192,-0.206 0.106,0.025 0.278,-0.369 0.52,-0.259 m -0.893,1.376 c -0.053,0.115 -0.306,0.207 -0.381,0.207 -0.077,0 -0.133,-0.197 -0.119,-0.434 0.014,-0.238 0.551,0.116 0.5,0.227 m -1.241,0.096 c -0.154,0.06 -0.278,-0.181 -0.278,-0.296 0,-0.113 0.086,-0.208 0.188,-0.208 0.106,0 0.243,0.442 0.09,0.504 m -0.419,-3.048 c 0,-0.11 0.592,-0.04 0.734,-0.045 0.145,-0.003 0.139,0.095 -0.011,0.215 -0.149,0.119 -0.723,-0.057 -0.723,-0.17 m 1.227,0.966 c 0.282,0.053 0.151,-0.402 0.216,-0.564 0.069,-0.163 0.741,-0.294 0.876,-0.405 0.133,-0.109 0.48,0.207 0.75,0.173 0.269,-0.035 -0.087,0.93 -0.541,0.903 -0.45,-0.03 -0.806,0.409 -0.912,0.463 -0.111,0.048 -0.63,0.366 -0.781,0.485 -0.148,0.122 -1.297,0.223 -1.688,0.223 -0.391,0 -0.821,-0.399 -0.88,-0.528 -0.063,-0.132 0.619,-0.22 0.812,-0.116 0.195,0.101 1.106,-0.116 1.292,-0.335 0.187,-0.217 0.574,-0.353 0.856,-0.299 m 2.61,-0.966 c 0,-0.11 0.587,-0.095 0.683,0.086 0.093,0.179 0.043,0.326 -0.115,0.326 -0.155,0 -0.568,-0.299 -0.568,-0.412 m -3.44,22.333 c -0.141,-0.132 -0.017,-0.792 0.253,-0.811 0.268,-0.019 0.698,0.995 1.028,0.791 0.329,-0.203 0.553,-0.284 0.498,-0.175 -0.056,0.106 -0.994,0.517 -1.11,0.595 -0.117,0.07 -0.523,-0.274 -0.669,-0.4 m 48.696,9.971 c -0.016,-0.178 1.329,-0.322 1.724,-0.252 0.391,0.067 -0.083,0.681 -0.659,0.644 -0.57,-0.038 -1.051,-0.214 -1.065,-0.392 m -9.349,0.181 c 0.482,-0.477 0.746,0.213 1.274,0.145 -0.009,0.969 -1.322,0.636 -1.274,-0.145 m 1.564,-3.774 c 0.31,0.311 1.582,0.73 1.727,1.052 0.144,0.319 -0.089,0.581 -0.217,0.581 -0.129,0 -0.29,-0.161 -0.317,-0.212 -0.033,-0.054 -1.494,-0.397 -1.94,-0.612 -0.453,-0.216 -0.972,-0.551 -1.159,-0.742 -0.189,-0.19 -0.499,-1.639 -0.608,-1.802 -0.107,-0.162 0.485,-0.753 0.749,-0.918 0.264,-0.16 0.625,-0.075 0.728,-0.045 0.1,0.033 -0.137,1.044 -0.272,1.397 -0.141,0.35 1,0.987 1.309,1.301 m -18.917,-5.159 c -0.118,0.209 -1.019,0.183 -1.239,0.197 -0.217,0.012 -0.892,0.237 -1.021,0.38 -0.124,0.143 -0.225,-0.555 -0.428,-0.646 -0.208,-0.089 0.101,-0.222 0.186,-0.148 0.082,0.074 -0.006,-0.359 -0.099,-0.508 -0.092,-0.148 0.6,-0.253 0.679,-0.477 0.077,-0.225 0.362,-0.37 0.635,-0.328 0.271,0.047 0.814,0.326 1.005,0.345 0.192,0.019 0.402,0.977 0.282,1.185 m -1.701,-6.606 c -0.151,0.063 -0.235,-0.504 -0.201,-0.72 0.036,-0.215 0.565,-0.197 0.791,-0.159 0.226,0.038 0.399,0.221 0.392,0.409 -0.013,0.185 -0.332,1.032 -0.459,1.032 -0.128,0 -0.37,-0.621 -0.523,-0.562 m 10.477,15.532 c 0.574,-0.079 1.219,0.391 1.359,0.526 0.143,0.132 -1.589,0.485 -2.249,0.506 -0.66,0.02 -1.193,-0.068 -1.182,-0.2 0.011,-0.127 1.497,-0.748 2.072,-0.832 m -2.843,0.589 c -0.289,0.099 -0.878,-0.223 -0.804,-0.404 0.078,-0.185 -0.478,0.233 -0.866,0.033 -0.387,-0.202 -0.493,-0.88 -0.315,-0.969 0.178,-0.088 0.309,-0.628 0.312,-0.731 0.005,-0.107 0.753,-0.03 0.944,0.127 0.187,0.157 0.163,-0.548 -0.024,-0.737 -0.189,-0.191 0.068,-0.572 0.276,-0.604 0.207,-0.029 0.491,-0.52 0.705,-0.514 0.213,0.005 0.577,0.827 0.661,1.136 0.084,0.305 0.794,0.064 1.121,-0.035 0.324,-0.094 0.445,1.134 0.092,1.32 -0.351,0.182 -0.793,0.091 -0.941,0.232 -0.144,0.142 -0.393,0.272 -0.557,0.297 -0.163,0.024 -0.318,0.75 -0.604,0.849 m -5.301,0.532 c -0.235,-0.029 -0.841,0.094 -0.947,0.205 -0.102,0.111 -1.014,0.209 -1.275,0.1 -0.263,-0.11 -0.084,0.64 0.283,0.72 0.364,0.083 0.054,0.6 -0.334,0.6 -0.391,0.003 -1.349,0.144 -1.574,0.093 -0.227,-0.049 -0.667,0.158 -0.827,0.181 -0.161,0.023 -1.314,-0.344 -1.858,-0.317 -0.547,0.023 -1.886,-0.031 -2.175,-0.112 -0.295,-0.077 -0.504,-0.645 -0.462,-0.844 0.044,-0.204 -1.295,-0.199 -1.715,-0.205 -0.423,-0.007 -2.667,-0.484 -3.252,-0.806 -0.586,-0.322 -1.043,-1.145 -0.85,-1.162 0.195,-0.016 -0.325,-0.483 -0.64,-0.593 -0.315,-0.107 -1.065,-0.155 -1.244,-0.332 -0.175,-0.176 0.189,-0.298 0.259,-0.418 0.069,-0.115 0.278,0.104 0.479,-0.01 0.196,-0.112 0.85,-0.164 1.022,-0.231 0.176,-0.069 -0.553,-0.207 -0.896,-0.232 -0.343,-0.024 -0.265,-0.697 0.014,-0.79 0.279,-0.095 0.998,-0.193 1.072,-0.077 0.074,0.118 0.854,-0.126 1.208,-0.168 0.349,-0.037 0.621,-0.92 0.726,-1.111 0.108,-0.19 0.132,-0.862 0.104,-1.057 -0.024,-0.193 0.622,-0.547 0.74,-0.424 0.113,0.123 0.08,-0.304 -0.177,-0.282 -0.258,0.023 -0.09,-0.723 0.231,-0.831 0.317,-0.106 0.099,-0.565 -0.084,-0.706 -0.186,-0.137 -0.085,-0.576 -0.274,-0.734 -0.186,-0.156 0.67,-1.64 0.663,-2.405 -0.005,-0.762 0.472,-1.385 0.654,-1.385 0.182,0 0.809,-0.153 0.893,-0.318 0.082,-0.162 0.385,0.114 0.506,0.24 0.116,0.124 0.374,0.492 0.566,0.814 0.192,0.325 0.622,1.854 0.681,2.019 0.057,0.165 0.775,0.061 0.94,0.145 0.162,0.085 0.634,0.455 0.767,0.566 0.134,0.11 1.159,0.544 1.442,0.747 0.276,0.199 0.744,1.069 0.961,1.254 0.219,0.187 -0.112,0.131 -0.386,0.311 -0.27,0.178 -0.151,0.397 -0.071,0.48 0.077,0.085 0.904,-0.138 1.189,-0.247 0.286,-0.113 0.828,0.279 0.622,0.433 -0.212,0.15 -0.101,0.146 0,0.082 0.1,-0.062 0.206,0.502 0.098,0.608 -0.111,0.109 0.836,0.799 0.668,1.451 -0.164,0.652 0.259,1.321 0.512,1.329 0.256,0.007 0.18,0.736 -0.124,0.805 -0.302,0.067 -0.017,0.134 0.097,0.238 0.112,0.103 0.256,0.754 0.191,0.878 -0.068,0.128 0.466,0.268 0.558,0.416 0.095,0.147 0.703,0.439 0.921,0.487 0.214,0.049 0.33,0.621 0.098,0.595 m -14.914,-62.973 h 0.558 c 0.1,0.605 -0.589,0.505 -0.558,0 m 30.005,11.569 c 0.038,-0.315 0.676,-0.564 0.86,-0.513 0.19,0.052 0.706,1.004 0.777,1.278 0.072,0.276 0.132,0.864 0.132,1.006 0,0.137 0.085,0.454 0.156,0.495 0.069,0.035 0.188,0.361 0.259,0.716 0.071,0.363 -0.383,2.034 -0.396,2.326 -0.012,0.295 -0.343,-0.151 -0.427,-0.449 -0.09,-0.296 -0.92,-0.902 -1.107,-1.154 -0.182,-0.251 -0.386,-1.106 -0.314,-1.254 0.068,-0.147 -0.072,-0.729 -0.158,-0.89 -0.079,-0.164 0.186,-1.244 0.218,-1.561 m 12.297,14.16 c -0.145,-0.301 0.781,-0.937 0.852,-0.791 0.076,0.146 -0.118,0.88 -0.284,1.044 -0.162,0.159 -0.419,0.046 -0.568,-0.253 m 8.404,-4.282 c -0.171,0.386 -0.736,1.036 -1.253,1.448 l -0.198,0.323 -0.213,0.356 c -0.195,0.392 -0.778,0.692 -0.829,0.808 -0.049,0.114 -0.235,-0.338 -0.433,-0.207 0.103,-0.073 0.32,-0.227 0.627,-0.445 0.548,-0.392 1.602,-3.042 1.841,-3.228 0.238,-0.186 0.628,0.558 0.458,0.945 m -2.933,2.73 c 0,0 0.004,0 0.007,-0.002 -0.083,0.061 -0.094,0.066 -0.007,0.002 m 10.758,12.495 c -0.196,-0.138 -0.299,-0.486 -0.238,-0.628 -0.029,0.003 -0.054,0.003 -0.082,0.003 -0.156,0 -0.174,-0.62 -0.007,-0.727 0.16,-0.106 0.559,0.485 0.767,0.625 0.207,0.141 0.623,0.227 0.687,0.181 0.064,-0.045 0.428,0.067 0.813,0.243 0.069,0.033 0.148,0.135 0.23,0.279 -0.092,0.453 -0.201,0.9 -0.311,1.348 -0.195,-0.146 -0.417,-0.301 -0.518,-0.391 -0.209,-0.19 -1.085,-0.758 -1.341,-0.933 M -1.78,0.496 C -1.31,0.165 -0.257,0.317 -0.224,0.954 -0.687,1.26 -1.82,1.208 -1.78,0.496 M -3.827,7.834 C -3.723,8.08 -3.958,8.351 -4.352,8.435 -4.747,8.516 -4.688,7.332 -4.515,7.18 c 0.17,-0.147 0.578,0.406 0.688,0.654 M -4.926,9.88 c 0.148,0.201 -0.203,1.154 -0.38,0.938 -0.175,-0.214 -0.047,-0.768 0.008,-0.965 0.056,-0.19 0.227,-0.178 0.372,0.027 M -8.62,-1.962 c -0.463,0.173 -1.002,-0.099 -1.044,-0.276 -0.047,-0.178 1.775,-0.467 2.379,-0.631 0.6,-0.165 0.977,-0.217 0.841,-0.115 -0.138,0.102 -1.715,0.847 -2.176,1.022 m 3.343,2.963 c 0.035,0.277 0.088,1.146 0.137,1.319 0.045,0.173 -0.473,0.671 -0.73,0.761 -0.255,0.089 -1.076,-1.691 -1.663,-2.007 -0.592,-0.317 -0.804,-1.399 -0.65,-1.651 0.157,-0.25 1.387,-0.382 1.601,-0.571 0.215,-0.188 0.453,0.03 0.581,0.062 0.131,0.031 0.09,0.114 0.04,0.147 -0.049,0.029 0.429,0.535 0.499,0.856 0.066,0.317 0.149,0.808 0.185,1.084 m 1.665,-0.758 c 0.146,0.054 -0.017,0.831 -0.32,0.897 -0.306,0.062 -1.148,-1.025 -0.989,-1.652 0.161,-0.624 0.338,-0.586 0.425,-0.453 0.087,0.131 0.59,-0.085 0.738,-0.136 0.146,-0.047 0.146,0.103 0,0.332 -0.148,0.233 0.002,0.958 0.146,1.012 m 0.6,4.275 c 0.053,-0.112 0.54,0.276 0.833,0.321 0.294,0.046 0.48,0.834 0.25,0.889 C -2.161,5.792 -2.452,6.396 -2.616,6.469 -2.782,6.543 -3.105,6.209 -3.091,5.971 -3.079,5.731 -3.626,5.635 -3.729,5.435 -3.831,5.237 -3.824,5.093 -3.711,5.114 -3.603,5.133 -3.062,4.626 -3.012,4.518 m -33.552,-18.479 c 0.521,0.307 1.407,1.617 1.697,1.891 0.291,0.277 0.502,1.266 0.564,1.483 0.057,0.217 0.501,0.567 0.666,0.614 0.164,0.047 0.695,2.242 1.157,2.721 0.461,0.48 1.006,2.799 0.949,3.635 -0.059,0.832 0.298,2.422 0.406,2.805 0.111,0.381 0.691,1.061 0.874,1.201 0.178,0.142 1.296,1.797 1.659,2.389 0.357,0.595 0.701,1.898 0.633,2.203 -0.068,0.306 -0.849,0.519 -0.994,0.369 -0.145,-0.152 -0.878,-0.276 -1.112,-0.276 -0.235,0 -0.773,1.256 -1.106,1.515 -0.332,0.257 -0.633,1.696 -0.826,1.969 -0.191,0.272 -0.729,0.962 -0.898,1.119 -0.168,0.156 -0.197,0.921 -0.235,1.13 -0.036,0.208 0.325,-0.139 0.388,-0.44 0.063,-0.305 0.924,-1.531 1.19,-1.943 0.268,-0.414 0.972,-1.727 1.15,-2.139 0.18,-0.409 1.745,-0.202 2.253,0.036 0.507,0.241 1.139,0.647 1.165,0.788 0.021,0.142 0.832,0.514 1.055,0.693 0.225,0.18 0.425,1.122 0.572,1.271 0.147,0.155 -0.119,1.051 -0.288,1.318 -0.167,0.267 -0.98,0.481 -1.141,0.376 -0.166,-0.105 -0.516,0.602 -0.641,0.861 -0.124,0.261 -0.745,0.579 -0.814,0.756 -0.064,0.182 0.171,0.46 0.268,0.521 0.098,0.062 1.243,-0.741 1.573,-1.14 0.326,-0.4 0.703,-1.134 0.767,-1.263 0.058,-0.127 0.964,-0.192 1.165,-0.044 0.2,0.148 0.433,0.109 0.512,-0.083 l 0.284,0.051 0.991,0.153 c 0.47,-0.508 0.605,-0.948 0.594,-1.051 -0.009,-0.096 0.287,-0.51 0.48,-0.554 0.192,-0.044 0.333,-0.693 0.392,-0.854 0.056,-0.16 0.622,-1.13 0.736,-1.54 0.117,-0.408 0.599,-1.205 0.715,-1.419 0.113,-0.214 0.21,-0.832 0.21,-1 0,-0.169 0.362,-0.503 0.587,-0.486 0.225,0.013 0.68,1.435 0.787,1.963 0.103,0.529 0.469,0.964 0.572,0.964 0.105,0 0.187,0.297 0.187,0.411 0,0.11 0.573,0.099 0.626,0.243 0.049,0.145 0.219,1.083 0.424,1.226 0.206,0.143 0.933,0.619 1.189,0.708 0.253,0.088 0.905,-0.474 1.052,-0.736 0.145,-0.262 0.276,-0.931 0.221,-1.039 -0.055,-0.11 0.343,-0.686 0.693,-0.675 0.344,0.01 0.454,-0.441 0.463,-0.603 0.016,-0.163 0.473,-0.628 0.564,-0.836 0.088,-0.208 0.063,-0.775 0.002,-0.904 -0.063,-0.128 -0.021,-0.871 0.046,-1.081 0.067,-0.206 1.135,-1.289 1.534,-1.618 0.402,-0.328 0.589,0.668 0.383,0.979 -0.204,0.31 -0.9,1.033 -1.064,1.247 -0.165,0.218 -0.192,1.083 -0.131,1.323 0.06,0.244 0.61,-0.133 0.838,-0.308 0.227,-0.175 0.527,-0.564 0.535,-0.696 0.008,-0.129 1.44,0.673 1.487,1.544 0.053,0.869 0.528,1.849 0.575,2.077 0.047,0.23 -0.141,0.546 -0.262,0.554 -0.121,0.012 0.213,0.664 0.613,0.654 0.403,-0.013 1.368,1.064 1.596,1.49 0.228,0.427 0.689,0.778 0.741,0.832 0.055,0.05 0.377,1.061 0.433,1.479 0.053,0.417 -0.237,1.069 -0.271,1.285 -0.034,0.216 -0.38,0.712 -0.471,0.869 -0.087,0.155 -0.172,0.741 -0.117,0.85 0.051,0.107 0.414,0.224 0.451,0.32 0.042,0.1 0.454,0.541 0.424,0.735 -0.031,0.196 0.258,-0.251 0.447,-0.412 0.189,-0.161 0.394,-1.199 0.631,-1.313 0.231,-0.114 1.182,1.1 1.064,1.883 -0.116,0.785 0.276,1.787 0.505,1.877 0.173,0.067 0.62,0.701 0.924,1.156 -2.089,6.032 -5.554,11.423 -10.025,15.798 -0.053,-0.004 -0.105,-0.006 -0.154,0.004 L -11.803,36 c -0.585,0.125 -0.925,0.749 -0.826,0.893 0.034,0.046 0.027,0.15 -0.003,0.274 -0.323,0.294 -0.657,0.583 -0.997,0.865 -0.274,0.008 -0.566,0 -0.735,0.008 -0.351,0.013 -1.109,0.262 -1.244,0.398 -0.138,0.134 -0.596,-0.12 -0.621,-0.373 -0.03,-0.253 -0.828,-0.37 -0.9,-0.563 -0.081,-0.19 -0.49,-0.206 -0.57,-0.096 -0.078,0.107 -0.819,-0.261 -1.186,-0.316 -0.368,-0.051 -1.052,-0.35 -1.217,-0.423 -0.164,-0.071 -0.553,-0.453 -0.617,-0.61 -0.062,-0.159 -0.535,-0.423 -0.685,-0.484 -0.154,-0.059 -0.122,-0.746 0.074,-0.844 0.194,-0.094 -0.364,0.084 -0.609,0.211 -0.25,0.122 -0.522,-0.294 -0.598,-0.438 -0.079,-0.143 -0.304,0.087 -0.294,0.29 0.008,0.208 -0.609,0.373 -0.69,0.209 -0.084,-0.164 -0.511,0.053 -0.688,0.146 -0.178,0.095 -0.942,-0.705 -1.227,-0.993 -0.284,-0.285 -1.642,-0.508 -1.897,-0.4 -0.254,0.107 -0.503,-0.601 -0.286,-0.65 0.214,-0.041 -0.553,0.037 -0.973,-0.002 -0.424,-0.042 -1.65,-0.533 -1.942,-0.751 -0.296,-0.219 -0.53,0.048 -0.53,0.216 0,0.168 -0.467,0.323 -0.607,0.371 -0.137,0.045 -0.411,-0.919 -0.652,-1.105 -0.244,-0.188 -0.537,0.753 -1.11,0.908 -0.572,0.154 -1.467,0.708 -1.723,0.773 -0.251,0.068 -0.763,0.603 -0.907,0.757 -0.144,0.155 -0.876,0.282 -1.111,0.282 -0.236,0 -0.994,-0.435 -1.196,-0.605 -0.209,-0.172 -0.512,-0.137 -0.612,-0.199 -0.102,-0.061 -0.96,-0.902 -1.291,-1.164 -0.333,-0.263 -0.915,-1.394 -1.101,-1.665 -0.193,-0.269 -0.464,-0.319 -0.576,-0.327 -0.112,-0.006 -0.202,-0.307 -0.202,-0.418 0,-0.112 -0.986,-0.624 -1.088,-1.071 -0.105,-0.446 0.095,-1.468 0.095,-1.832 0,-0.362 0.367,-1.082 0.64,-1.094 0.272,-0.013 0.13,-0.617 0.058,-0.786 -0.072,-0.171 0.172,-0.355 0.164,-0.499 -0.007,-0.145 -0.691,-0.347 -0.902,-0.429 -0.213,-0.078 -0.553,-0.556 -0.599,-0.732 -0.037,-0.157 -0.694,-0.267 -0.911,-0.475 0.053,0.15 0.127,0.358 0.186,0.475 0.125,0.238 -0.049,0.654 -0.15,0.74 -0.105,0.086 -0.153,1.271 -0.319,1.523 -0.166,0.255 -0.58,0.685 -0.682,0.769 -0.103,0.082 0.071,0.394 0.131,0.527 0.06,0.131 -0.553,0.207 -0.72,0.108 -0.168,-0.095 -0.258,-1.268 -0.328,-1.588 -0.068,-0.32 0.303,-0.814 0.405,-0.835 0.098,-0.025 0.071,-0.602 -0.142,-0.62 -0.216,-0.022 -0.412,-0.864 -0.302,-1.056 0.111,-0.193 -0.153,-0.571 -0.28,-0.657 -0.126,-0.086 0.822,-0.038 1.257,-0.025 0.434,0.011 0.774,-0.183 0.729,-0.218 -0.047,-0.036 -0.83,-0.153 -0.972,-0.339 -0.139,-0.185 -0.671,-0.543 -0.775,-0.688 -0.103,-0.141 0.176,-0.458 0.401,-0.443 0.226,0.013 0.482,-0.78 0.658,-0.926 0.175,-0.149 0.11,-0.558 0.035,-0.672 -0.082,-0.111 -1.139,0.076 -1.541,-0.023 -0.405,-0.1 -0.914,-0.952 -0.948,-1.272 -0.037,-0.323 0.065,-1.246 0.12,-1.502 0.049,-0.254 0.893,-0.415 1.062,-0.54 0.176,-0.122 0.98,-0.003 1.151,-0.081 0.163,-0.081 0.709,0.818 0.818,1.234 0.103,0.418 0.965,1.181 1.144,1.465 0.179,0.282 1.106,0.25 1.334,0.4 0.229,0.144 0.101,-0.705 0.211,-1.171 0.108,-0.47 0.996,-0.411 0.865,0.03 -0.13,0.436 0.089,0.628 0.124,0.468 0.039,-0.155 0.889,-0.505 1.052,-0.752 0.16,-0.247 0.115,-0.771 -0.074,-0.765 -0.19,0.008 -0.197,-0.574 0.005,-0.636 0.198,-0.064 0.467,0.654 0.682,0.759 0.214,0.108 0.388,0.554 0.287,0.589 -0.096,0.034 0.183,0.434 0.305,0.302 0.121,-0.13 -0.456,0.871 -0.818,1.237 -0.363,0.364 -0.108,0.202 0.57,-0.361 l 0.469,-0.657 c 0.092,-0.118 0.211,-0.476 0.291,-0.608 l 0.111,-0.194 c 0.091,-0.229 0.172,-0.858 0.172,-1.028 0,-0.167 0.367,-0.503 0.589,-0.487 0.224,0.015 0.393,-0.106 0.346,-0.115 -0.046,-0.007 0.147,-0.443 0.369,-0.453 0.221,-0.009 0.317,0.562 0.094,0.576 -0.222,0.012 -0.189,0.84 -0.218,1.196 -0.025,0.361 0.161,0.656 0.239,0.656 0.076,0 -0.011,-0.74 -0.003,-0.91 0.003,-0.169 0.096,-0.505 0.201,-0.745 l 0.23,-0.174 0.513,-0.395 c 0.737,0.217 1.727,0.051 1.688,-0.101 -0.04,-0.151 0.544,-0.187 0.58,0.058 0.034,0.24 0.063,-0.007 0.063,-0.177 0,-0.165 -0.485,-0.823 -0.564,-1.128 -0.082,-0.302 -1.782,-0.096 -2.515,-0.041 -0.731,0.055 -1.811,-0.194 -1.895,-0.412 -0.08,-0.22 -1.224,0.502 -1.746,0.721 -0.526,0.223 -0.937,1.021 -1.044,1.124 -0.109,0.106 0.09,0.364 0.041,0.52 -0.052,0.161 -1.248,0.193 -1.594,0.063 -0.349,-0.127 -2.141,-0.317 -2.566,-0.503 -0.422,-0.19 -1.063,0.011 -1.262,0.047 -0.198,0.034 -0.673,-0.55 -0.912,-0.657 -0.245,-0.105 -0.549,-0.934 -0.681,-1.847 l -0.325,-0.634 -0.211,-0.406 c -0.593,-0.449 -1.247,-1.952 -1.441,-2.254 -0.191,-0.302 -0.345,-2.466 -0.345,-3.194 0,-0.727 0.635,-2.268 0.815,-2.693 0.18,-0.425 1.278,-1.366 1.643,-1.592 0.369,-0.22 1.561,-0.25 1.952,-0.249 0.39,10e-4 0.836,0.373 0.986,0.825 l 0.575,-0.057 0.261,-0.028 c 0.015,-0.32 0.86,-0.576 1.068,-0.688 0.206,-0.114 0.764,-0.029 0.928,0.021 0.168,0.046 0.353,-1.447 0.232,-1.88 -0.118,-0.431 0.295,-1.947 0.415,-2.404 0.123,-0.456 0.642,-1.703 0.695,-2.151 0.049,-0.449 -0.305,-1.937 -0.364,-2.458 -0.058,-0.524 0.649,-1.981 0.839,-2.483 0.183,-0.501 0.335,-1.58 0.335,-1.829 0,-0.251 0.776,-1.76 0.951,-2.38 0.181,-0.622 2.124,-0.775 2.645,-0.469 m -29.435,50.658 c 0.487,0.08 1.297,0.216 1.354,0.353 0.039,0.112 0.045,0.448 -0.046,0.564 0.077,-0.006 0.167,-0.008 0.235,-0.008 0.185,0 0.494,1.013 0.687,1.25 0.196,0.237 1.31,0.585 1.575,0.745 0.266,0.163 0.847,0.721 1.069,0.786 0.225,0.067 0.548,0.587 0.499,0.693 -0.048,0.102 0.754,0.591 1.061,0.72 0.302,0.129 0.462,0.487 0.347,0.501 -0.073,0.01 -1.773,-0.88 -3.33,-1.762 -1.778,-1.207 -3.446,-2.556 -5.009,-4.021 0.486,0.035 1.24,0.125 1.558,0.179 m 2.781,-17.167 0.003,10e-4 c -0.014,-0.006 -0.015,-0.008 -0.003,-10e-4 m -4.789,-24.79 c -0.056,-0.109 0.67,-0.857 0.953,-1.11 0.281,-0.257 0.88,-1.477 1.002,-1.879 0.121,-0.401 0.05,-1.056 0.01,-1.211 -0.038,-0.154 0.136,-0.493 0.167,-0.634 0.023,-0.14 -0.251,-1.338 -0.145,-1.82 0.105,-0.481 -0.563,-1.984 -0.55,-2.729 0.017,-0.747 0.354,-1.72 0.49,-1.647 0.135,0.072 0.184,-0.679 -0.044,-0.769 -0.229,-0.091 -0.492,-0.683 -0.365,-0.715 0.127,-0.032 -0.01,-0.616 0.026,-0.851 0.034,-0.236 0.233,-1.785 0.275,-2.17 0.043,-0.386 0.594,-1.328 0.712,-1.646 0.115,-0.322 0.232,-0.925 0.277,-1.016 0.046,-0.094 0.101,-0.189 0.107,-0.193 0.011,-0.002 0.455,-0.167 0.582,-0.265 0.132,-0.096 1.002,-0.036 1.287,0.023 0.286,0.059 0.023,0.318 -0.104,0.459 -0.128,0.142 -0.242,0.829 -0.39,0.901 -0.148,0.067 -0.21,0.944 -0.081,1.137 0.131,0.195 0.652,0.504 0.709,0.666 0.053,0.164 0.069,0.926 -0.069,1.032 -0.141,0.104 0.042,1.031 -0.065,1.491 -0.104,0.459 0.799,0.878 0.853,1.242 0.052,0.364 1.031,0.757 1.253,0.939 0.221,0.184 0.413,1.227 0.308,1.454 -0.108,0.222 0.363,0.405 0.572,0.405 0.206,0 0.441,0.15 0.521,0.15 0.08,0.002 0.327,0.464 0.461,0.57 0.135,0.107 0.411,1.21 0.653,1.39 0.243,0.182 0.443,0.848 0.443,1.045 0,0.194 0.373,0.777 0.495,0.951 0.121,0.175 1.035,0.594 1.2,0.659 0.162,0.068 0.41,1.536 0.474,2.064 0.064,0.525 0.338,1.231 0.358,1.403 0.017,0.175 0.311,0.322 0.363,0.377 0.057,0.055 0.274,0.727 0.414,0.882 0.14,0.154 0.646,0.793 0.658,0.938 0.011,0.143 0.087,0.508 0.173,0.816 l -0.004,0.357 0.005,0.573 c -0.162,0.442 -0.652,0.995 -0.776,0.873 -0.125,-0.121 -0.691,0.391 -0.978,0.501 -0.29,0.105 -1.009,0.195 -1.192,0.195 -0.181,0 -0.811,0.515 -1.093,0.606 -0.281,0.086 -0.999,0.224 -1.132,0.309 -0.131,0.084 -0.307,1.153 -0.888,1.502 -0.578,0.351 -1.592,1.166 -1.706,1.467 -0.111,0.298 -1.222,0.928 -1.57,1.116 -0.341,0.19 -0.862,0.235 -0.926,0.166 -0.068,-0.064 -0.496,0.581 -0.715,0.765 -0.223,0.179 -0.889,0.332 -0.919,0.169 -0.031,-0.164 -0.472,-0.078 -0.578,0.062 -0.102,0.137 -0.446,-0.056 -0.608,-0.111 -0.159,-0.05 -0.714,-0.895 -0.966,-1.1 -0.257,-0.2 -0.559,0.188 -0.727,0.263 -0.168,0.071 -0.805,-0.127 -0.98,-0.252 -0.174,-0.122 -0.577,0.895 -0.481,1.364 0.091,0.469 -0.42,1.401 -0.819,1.425 -0.393,0.022 -0.518,1.004 -0.439,1.364 0.079,0.361 -0.715,0.586 -0.914,0.611 -0.203,0.028 -0.696,-0.483 -0.78,-0.726 -0.085,-0.244 -1.886,0.332 -1.672,1.413 0.208,1.078 1.063,2.196 1.275,2.329 0.212,0.129 1.37,0.196 1.626,0.051 0.257,-0.149 0.488,0.002 0.532,0.067 0.041,0.067 0.986,-0.011 1.27,-0.126 0.279,-0.114 0.684,-1.204 0.976,-1.338 0.294,-0.137 0.4,0.704 0.446,0.907 0.049,0.205 -0.142,0.723 -0.212,0.869 -0.073,0.146 0.468,1.468 0.912,1.692 0.437,0.227 0.904,0.963 0.87,1.093 -0.041,0.129 0.351,0.231 0.454,0.287 0.108,0.053 -0.014,1.123 0.159,1.356 0.177,0.23 1.003,0.72 1.265,0.831 0.262,0.111 0.459,0.786 0.367,0.903 -0.097,0.121 0.676,0.779 1.077,0.906 0.402,0.123 0.749,-0.232 0.65,-0.287 0.079,0.046 0.633,0.332 0.869,0.487 0.275,0.182 0.005,0.683 -0.174,0.832 -0.175,0.143 -0.07,0.724 0.143,0.777 0.214,0.053 0.401,0.554 0.344,0.662 -0.057,0.111 0.884,-0.087 1.242,0.18 0.353,0.265 0.103,-0.637 -0.161,-1.001 -0.259,-0.364 0.192,-0.708 0.362,-0.64 0.167,0.071 0.346,-0.192 0.381,-0.295 0.034,-0.101 0.396,0.107 0.631,0.004 0.239,-0.105 0.377,0.325 0.399,0.521 0.016,0.198 -0.568,0.607 -0.659,0.843 -0.09,0.237 -0.13,1.617 -0.141,1.9 -0.014,0.283 -0.393,0.741 -0.515,0.659 -0.121,-0.078 -0.371,0.734 -0.566,0.91 -0.201,0.176 -0.242,0.567 -0.236,0.697 0.009,0.132 -0.667,0.838 -0.83,1.165 -0.161,0.327 -0.389,0.261 -0.404,0.112 -0.018,-0.151 -0.487,-0.171 -0.68,-0.153 -0.194,0.018 -0.352,0.764 -0.352,1.046 0,0.282 -0.871,0.33 -1.015,0.559 -0.142,0.225 -0.71,0.119 -0.801,0.276 -0.094,0.157 -0.596,0.302 -0.692,0.244 -0.104,-0.06 -0.054,-2.084 -0.151,-2.629 -0.096,-0.547 -0.558,-1.027 -0.729,-1.013 -0.166,0.011 -0.066,-0.39 0.05,-0.353 0.12,0.035 -0.328,-0.597 -0.386,-1.011 -0.059,-0.414 -0.48,0.017 -0.548,0.394 -0.07,0.376 -0.48,0.885 -0.558,0.755 -0.079,-0.126 -0.361,0.154 -0.486,0.075 -0.121,-0.081 -0.899,0.451 -1.213,0.623 -0.313,0.166 -0.49,1.132 -0.668,1.215 -0.183,0.087 -0.03,0.201 -0.037,0.348 -0.005,0.145 0.608,0.707 0.794,0.927 0.185,0.226 0.857,1.1 1.124,1.287 0.268,0.19 0.476,0.691 0.432,0.785 -0.047,0.089 1.141,0.461 1.464,0.573 0.319,0.109 0.6,1.008 0.643,1.265 0.044,0.259 -0.202,0.746 -0.35,0.811 -0.152,0.063 0.448,0.086 0.645,-0.014 0.2,-0.097 0.813,0.182 1.056,0.053 0.239,-0.127 0.731,-0.418 1.084,-0.642 l -0.075,-0.659 -0.145,-1.117 c -0.937,-0.388 -1.207,-1.059 -0.879,-1.045 0.329,0.017 1.824,-0.647 2.247,-0.95 0.422,-0.303 0.555,0.438 0.679,0.686 0.126,0.242 0.086,0.96 -0.015,1.102 -0.102,0.143 0.488,0.092 0.655,-0.067 0.166,-0.158 0.359,0.164 0.488,0.221 0.127,0.058 0.189,0.671 0.261,0.794 0.065,0.127 -0.281,0.252 -0.292,0.404 -0.011,0.157 -0.684,0.447 -0.901,0.552 -0.221,0.105 -0.27,0.567 -0.163,0.647 0.107,0.082 -0.074,0.672 -0.183,0.867 -0.104,0.195 -0.809,0.353 -1.043,0.353 -0.233,0 -0.475,0.543 -0.61,0.623 -0.135,0.077 -1.038,0.176 -1.258,0.111 -0.223,-0.065 -0.633,0.639 -1.008,0.424 -0.377,-0.214 -0.764,0.252 -0.934,0.346 -0.172,0.092 -1.052,-0.854 -1.045,-1.517 0.01,-0.667 0.344,-1.31 0.482,-1.329 0.138,-0.019 -0.033,-0.619 -0.186,-0.791 -0.152,-0.17 -0.523,0.181 -0.382,0.332 0.137,0.15 -0.383,0.848 -0.563,1.13 -0.128,0.204 -0.586,0.387 -0.896,0.51 -0.183,-0.197 -0.36,-0.398 -0.536,-0.6 0.069,-0.241 0.149,-0.556 0.072,-0.794 -0.131,-0.406 -0.47,-0.468 -0.49,-0.292 -0.009,0.078 -0.182,0.137 -0.383,0.163 -4.931,-5.911 -8.213,-13.24 -9.152,-21.273 0.198,-0.225 0.419,-0.491 0.478,-0.681 0.113,-0.357 0.734,-0.593 0.852,-0.664 0.113,-0.071 0.155,0.684 0.071,0.881 -0.079,0.196 0.152,0.314 0.146,0.169 -0.005,-0.145 0.586,-0.808 0.779,-1.05 0.195,-0.239 0.395,-1.793 0.581,-2.125 0.185,-0.333 1.976,-1.025 2.555,-1.145 0.575,-0.123 1.302,-0.767 1.417,-0.954 0.11,-0.186 0.877,-0.28 1.041,-0.354 0.168,-0.077 0.558,-0.596 0.723,-0.703 0.161,-0.11 0.291,-0.417 0.291,-0.5 0,-0.083 1.012,-0.465 1.257,-0.736 0.245,-0.27 0.651,-0.196 0.727,-0.083 0.078,0.115 0.276,-0.538 0.382,-0.762 0.102,-0.226 0.129,-0.779 0.047,-0.868 -0.078,-0.085 -0.222,-1.104 -0.396,-1.308 -0.172,-0.204 -0.53,-1.683 -0.453,-1.974 0.079,-0.294 0.552,-0.896 0.759,-0.987 0.203,-0.089 0.116,-0.405 -0.044,-0.428 -0.163,-0.019 -0.087,-1.432 0.293,-1.642 0.382,-0.208 0.701,-0.833 0.646,-0.942 m 67.202,1.043 C -1.342,-4.23 -2.039,-4.482 -2.05,-4.665 -2.06,-4.85 -2.798,-5.181 -3.042,-5.279 -3.286,-5.378 -3.76,-6.133 -3.865,-6.381 -3.967,-6.63 -4.57,-6.555 -4.796,-6.657 c -0.22,-0.097 -0.681,-0.468 -0.683,-0.692 -0.002,-0.219 -0.126,-0.197 -0.277,0.057 l -0.293,-0.309 -0.346,-0.385 c -0.201,-0.627 -0.862,-1.415 -1.09,-1.482 -0.228,-0.063 -0.267,-1.162 -0.267,-1.603 0,-0.445 0.171,-0.99 0.382,-1.215 l 0.046,-0.35 0.076,-0.701 c -0.122,-0.539 0.289,-1.023 0.41,-1.119 0.117,-0.091 1.124,0.182 1.509,0.275 0.161,0.037 0.36,0.127 0.55,0.222 1.799,3.01 3.211,6.274 4.188,9.721 -0.074,0.014 -0.146,0.024 -0.214,0.021"
                   style="fill:#ffffff;fill-opacity:1;fill-rule:nonzero;stroke:none"
                   id="path178" /></g></g></g></g><g
           id="g186"><g
             id="g188" /><g
             id="g236"
             mask="url(#mask210)"><g
               id="g238" /><g
               id="g250"><g
                 clip-path="url(#clipPath242)"
                 opacity="0.699997"
                 id="g248"><g
                   transform="translate(179.8123,188.1927)"
                   id="g246"><path
                     d="m 0,0 c 0,-14.195 -13.69,-25.701 -30.574,-25.701 -16.887,0 -30.576,11.506 -30.576,25.701 0,14.193 13.689,25.7 30.576,25.7 C -13.69,25.7 0,14.193 0,0"
                     style="fill:#e5eef7;fill-opacity:1;fill-rule:nonzero;stroke:none"
                     id="path244" /></g></g></g></g></g></g></g><g
       id="g252"><g
         id="g254"><g
           id="g260"><g
             id="g262"><path
               d="m 152.332,174.33 c -4.487,0 -8.124,-3.637 -8.124,-8.123 v 0 c 0,-4.486 3.637,-8.123 8.124,-8.123 v 0 h 10.816 v -1.488 c 0,0 -3.447,-21.772 -21.363,-24.121 v 0 c 0,0 5.032,0.03 9.307,0.03 v 0 c 8.773,0 14.685,1.516 25.808,13.08 v 0 c 1.493,1.552 2.494,5.091 2.494,7.246 v 0 13.376 c 0,4.486 -3.637,8.123 -8.123,8.123 v 0 z"
               style="fill:url(#linearGradient274);stroke:none"
               id="path276" /></g></g></g></g><g
       id="g278"><g
         id="g280"><g
           id="g286"><g
             id="g288"><path
               d="m 152.332,174.33 c -4.487,0 -8.124,-3.637 -8.124,-8.123 v 0 c 0,-0.297 0.019,-0.59 0.049,-0.88 v 0 h 35.137 v 0.88 c 0,4.486 -3.637,8.123 -8.123,8.123 v 0 z"
               style="fill:url(#linearGradient300);stroke:none"
               id="path302" /></g></g></g></g></g></svg>
